<svg width="17" height="16" viewBox="0 0 17 16" fill="none" xmlns="http://www.w3.org/2000/svg">
<path d="M15.2025 1.46415C17.0875 3.35415 17.1525 6.36415 15.3992 8.32749L8.33251 15.4042L1.26751 8.32749C-0.485828 6.36415 -0.419995 3.34915 1.46417 1.46415C3.35167 -0.422517 6.37084 -0.48585 8.33417 1.27415C10.2917 -0.48335 13.3167 -0.425017 15.2025 1.46415ZM2.64334 2.64332C1.40167 3.88498 1.33917 5.87248 2.48334 7.18582L8.33334 13.045L14.1833 7.18665C15.3283 5.87248 15.2658 3.88748 14.0225 2.64165C12.7833 1.39998 10.7883 1.33998 9.47834 2.48665L5.97667 5.98915L4.79751 4.81082L7.15167 2.45498L7.08334 2.39748C5.77084 1.34332 3.85251 1.43332 2.64334 2.64332Z" fill="white"/>
</svg>
