<svg width="23" height="23" viewBox="0 0 23 23" fill="none" xmlns="http://www.w3.org/2000/svg">
<g clip-path="url(#clip0_338_733)">
<path d="M4.22244 13.9178L7.48269 10.6576L10.1929 13.3687L13.2183 10.3433L11.5 8.62496H16.2917V13.4166L14.5734 11.6983L10.1929 16.0789L7.48269 13.3687L5.11082 15.7396C6.18742 17.36 7.83979 18.5106 9.73308 18.958C11.6264 19.4055 13.619 19.1165 15.3071 18.1495C16.9952 17.1826 18.2526 15.61 18.8245 13.7505C19.3964 11.891 19.2399 9.88364 18.3868 8.13519C17.5338 6.38674 16.0479 5.02798 14.2304 4.33426C12.4128 3.64053 10.3995 3.66374 8.59837 4.39916C6.79728 5.13458 5.34312 6.52722 4.53058 8.29487C3.71804 10.0625 3.60789 12.073 4.22244 13.9188V13.9178ZM2.74853 15.4109L2.73894 15.4013L2.74278 15.3975C2.19646 14.1708 1.91497 12.8428 1.91669 11.5C1.91669 6.20708 6.20715 1.91663 11.5 1.91663C16.7929 1.91663 21.0834 6.20708 21.0834 11.5C21.0834 16.7928 16.7929 21.0833 11.5 21.0833C7.59961 21.0833 4.24544 18.7545 2.74853 15.4109Z" fill="#2EB67D"/>
</g>
<defs>
<clipPath id="clip0_338_733">
<rect width="23" height="23" fill="white"/>
</clipPath>
</defs>
</svg>
